<?xml version="1.0" encoding="UTF-8" standalone="no"?>
<!DOCTYPE svg PUBLIC "-//W3C//DTD SVG 1.1//EN" "http://www.w3.org/Graphics/SVG/1.1/DTD/svg11.dtd">
<svg version="1.1" xmlns="http://www.w3.org/2000/svg" xmlns:xlink="http://www.w3.org/1999/xlink" preserveAspectRatio="xMidYMid meet" viewBox="0 0 640 640" width="640" height="640"><defs><path d="M305.6 6.4C304.58 7.55 303.74 8.58 302.59 9.86C282.88 25.28 181.5 110.21 173.38 282.75C166.78 419.58 255.55 509.38 292.61 540.8C301.76 501.31 313.47 399.23 310.34 296.19C309.89 288.64 309.89 269.06 309.76 241.86C309.5 181.82 308.93 59.71 305.6 6.4Z" id="a49CdXUKd7"></path><path d="M315.9 566.14C315.58 566.79 312.97 571.96 312.64 572.61C317.95 598.66 317.18 627.78 317.18 627.78C318.94 628.36 333.02 633.08 334.78 633.66C334.78 633.66 331.2 587.2 336.19 564.74C336.45 563.71 336.64 562.88 336.9 561.86C332.03 557.38 325.63 550.27 322.18 544.38C320.32 552.83 318.14 560.96 315.9 566.14Z" id="bjEcPX4t9"></path><path d="M336.77 16.7C336.51 16.45 336.19 16 336.06 15.55C338.05 54.72 339.2 124.1 339.78 241.73C339.78 241.75 339.78 241.96 339.78 241.98C339.9 267.71 339.9 288.19 340.22 295.17C342.21 363.07 338.05 423.42 334.21 462.02C334.66 500.03 348.1 533.18 355.97 538.82C359.1 536.26 362.82 533.12 366.85 529.41C367.3 529.15 367.55 528.96 367.55 528.96C367.55 528.83 367.55 528.83 367.55 528.7C408.96 490.62 488.45 394.69 461.57 237.57C426.94 85.57 345.47 35.71 336.77 16.7Z" id="fcwDAB9uF"></path></defs><g><g><g><use xlink:href="#a49CdXUKd7" opacity="1" fill="#32a25f" fill-opacity="1"></use><g><use xlink:href="#a49CdXUKd7" opacity="1" fill-opacity="0" stroke="#000000" stroke-width="1" stroke-opacity="0"></use></g></g><g><use xlink:href="#bjEcPX4t9" opacity="1" fill="#32a25f" fill-opacity="1"></use><g><use xlink:href="#bjEcPX4t9" opacity="1" fill-opacity="0" stroke="#000000" stroke-width="1" stroke-opacity="0"></use></g></g><g><use xlink:href="#fcwDAB9uF" opacity="1" fill="#32a25f" fill-opacity="1"></use><g><use xlink:href="#fcwDAB9uF" opacity="1" fill-opacity="0" stroke="#000000" stroke-width="1" stroke-opacity="0"></use></g></g></g></g></svg>