<?xml version="1.0" encoding="UTF-8" standalone="no"?>
<!DOCTYPE svg PUBLIC "-//W3C//DTD SVG 1.1//EN" "http://www.w3.org/Graphics/SVG/1.1/DTD/svg11.dtd">
<svg version="1.1" xmlns="http://www.w3.org/2000/svg" xmlns:xlink="http://www.w3.org/1999/xlink" preserveAspectRatio="xMidYMid meet" viewBox="0 0 640 640" width="38" height="38"><defs><path d="M362.31 13.23C357.98 24.31 368.75 35.14 372.61 40.81C375.29 44.73 378.78 49.15 380.7 53.58C381.97 56.51 382.16 59.44 383.24 62.52C385.93 70.12 390.21 78.77 393.64 85.82C395.38 89.4 397.31 93.13 399.52 96.31C400.89 98.24 403.19 99.14 403.57 102.12C401.31 105.5 401.17 110.72 399.9 114.99C394.16 134.12 396.32 157.92 404.65 172.03C407.24 176.4 413.31 185.69 421.59 182.16C428.83 179.03 427.23 169.35 429.3 160.75C429.77 158.86 429.49 157.42 430.43 156.13C430.43 156.17 430.43 156.49 430.43 156.53C432.6 161.2 434.81 165.87 437.02 170.49C441.96 178.84 450.66 187.53 458 193.44C461.81 196.47 464.82 201.74 469.76 203.53C469.76 203.5 469.76 203.37 469.76 203.13C469.54 203.13 469.41 203.13 469.39 203.13C468.45 201.54 466.94 200.9 465.72 199.65C462.85 196.67 459.65 192.95 457.3 189.52C450.57 179.93 444.64 169.4 439.28 158.46C436.69 153.25 434.43 147.48 432.27 142.17C431.42 140.08 431.42 137 429.68 135.91C427.28 139.83 423.8 142.96 421.96 147.58C419.05 154.94 418.62 163.93 417.54 173.22C416.88 173.47 417.17 173.27 416.84 173.62C411.71 172.28 409.87 166.71 407.99 161.94C403.19 149.87 402.25 130.39 406.53 116.53C407.62 112.9 412.56 101.57 410.58 98.24C409.64 94.92 406.44 93.03 404.7 90.49C402.49 87.36 400.32 83.24 398.82 79.61C394.87 70.17 391.15 59.24 386.96 49.7C384.99 45.13 381.65 40.56 378.87 36.48C375.81 32.01 372.42 28.73 370.02 23.27C369.22 21.38 368.05 18.3 369.32 16.31C369.7 14.97 370.26 14.42 371.53 13.98C373.65 12.24 379.57 14.52 381.83 15.52C387.71 18.1 392.65 20.58 397.64 24.06C400.04 25.75 402.44 28.98 405.36 29.93C405.69 29.93 408.32 29.93 408.65 29.93C413.87 31.17 419.66 30.27 424.46 31.86C433.02 34.6 440.69 38.87 447.61 43.49C468.82 57.6 486.18 77.72 497.99 101.72C499.92 105.6 500.77 109.32 502.46 113.4C505.8 121.65 510.08 130.19 513.47 138.24C516.81 146.34 520.11 154.44 524.86 161.15C527.35 164.68 537.04 166.61 541.42 168.55C544.48 169.94 549.56 171.38 552.43 173.22C558.03 176.75 563.39 180.97 568.61 184.9C571.25 186.84 579.24 191.06 579.67 194.59C566.73 194.24 556.85 195.48 548.43 199.26C546.03 200.35 542.17 200.35 541.79 203.53C543.06 204.97 543.3 207.16 544.33 208.95C546.36 212.37 549.74 216.99 552.8 219.43C556.14 222.06 559.53 224.89 563.11 227.23C569.41 231.25 576.47 233.59 582.58 237.66C586.16 240.1 589.78 243.13 593.26 245.81C595 247.2 596.13 249.29 598.39 250.14C598.39 250.1 598.39 249.78 598.39 249.74C597.22 248.15 596.93 245.96 595.85 244.32C595.37 243.81 591.49 239.72 591.01 239.2C586.35 232.7 580.42 226.93 574.12 222.16C569.08 218.34 557.84 213.17 555.77 207.01C555.73 206.97 555.43 206.65 555.39 206.61C558.92 206.21 563.11 204.82 566.4 203.88C571.95 202.34 576.84 202.73 582.54 201.19C585.12 200.4 587.71 199.6 590.3 198.86C590.3 198.7 590.3 197.43 590.3 197.27C587.43 194.19 585.36 190.02 582.21 187.18C573.97 179.78 564.99 172.38 555.72 166.22C550.59 162.79 544.24 160.55 538.83 157.67C537 156.68 533.8 156.18 532.57 154.54C529.7 150.71 528.15 145.84 525.94 141.37C521.33 131.98 516.81 121.75 512.72 111.86C509.94 105.15 508.11 98.49 504.63 92.43C487.92 63.46 469.95 45.92 442.1 28.73C436.17 25.06 429.07 23.67 421.54 21.78C417.45 21.48 413.45 21.23 409.36 20.98C406.91 19.89 404.32 16.71 402.02 15.12C396.23 11.29 384.84 4.64 375.43 4.49C369.79 4.34 364.85 6.62 362.31 13.23ZM408.65 47.42C408.65 47.44 408.65 47.57 408.65 47.81C408.88 47.81 409 47.81 409.03 47.81C410.3 50.6 412.6 52.38 414.2 54.77C415.42 57.5 416.6 60.23 417.82 62.97C417.86 62.93 418.16 62.61 418.2 62.57C420.46 60.88 421.54 58.15 421.54 54.02C420.6 53.03 420.46 51.74 419.71 50.55C418.62 48.91 416.6 48.01 415.28 46.62C412.6 46.57 410.67 46.97 408.65 47.42ZM10.68 210.29C3.53 212.57 0 217.09 0 226.29C0 232.7 0 264.76 0 322.48L24.13 322.48L24.13 228.62C44.2 276.77 55.35 303.52 57.58 308.86C61.72 318.85 67.37 322.43 78.43 322.43C89.53 322.43 94.94 318.85 99.08 308.86C101.31 303.65 112.46 277.58 132.53 230.66L132.53 322.48L156.62 322.48C156.62 264.76 156.62 232.7 156.62 226.29C156.62 217.09 153.14 212.57 145.94 210.29C128.81 204.57 117.29 209.49 112.11 221.86C109.82 227.3 98.37 254.5 77.77 303.45C57.84 254.5 46.77 227.3 44.55 221.86C40.79 212.57 33.26 207.5 22.53 207.95C18.91 208.1 14.96 208.85 10.68 210.29ZM316.16 208C306.65 208 277.06 209.19 277.06 233.44C277.06 235.01 277.06 247.57 277.06 249.14C277.06 260.27 286.33 269.36 306.42 271.6C308.67 271.75 310.93 271.95 313.19 271.95C313.19 271.95 336.62 271.45 337.28 271.6C350.83 271.6 349.32 282.73 349.32 284.32C349.32 285.59 349.32 295.77 349.32 297.04C349.32 298.78 348.95 309.76 337.14 309.76C333.13 309.76 313.11 309.76 277.06 309.76L277.06 322.48C313.25 322.48 333.35 322.48 337.37 322.48C345.28 322.48 352.95 320.74 359.06 317.71C369.22 312.79 373.41 306.13 373.41 297.39C373.41 295.57 373.41 281.02 373.41 279.2C373.41 259.68 350.45 258.88 337.28 258.88C334.87 258.88 315.6 258.88 313.19 258.88C303.73 258.88 302.28 252.82 301.15 246.16C301.15 244.89 301.15 234.71 301.15 233.44C302.28 228.37 304.39 221.52 312.77 220.72C316.81 220.72 337.03 220.72 373.41 220.72L373.41 208C342.87 208 323.79 208 316.16 208ZM409.31 208C391.52 210.59 385.27 219.93 385.27 233.44C385.27 239.8 385.27 290.68 385.27 297.04C385.27 309.41 391.81 316.86 405.26 320.74C409.78 322.08 413.87 322.63 417.73 322.63C419.52 322.62 428.46 322.57 444.55 322.48L460.31 322.48L473.72 335.2L500.82 335.2C489.64 324.56 483.43 318.64 482.18 317.46C490.94 313.63 493.66 307.77 493.66 296.79C493.66 290.46 493.66 239.78 493.66 233.44C493.66 219.93 485.34 210.59 467.55 208C455.9 208 420.96 208 409.31 208ZM505.9 208C505.9 261.1 505.9 290.59 505.9 296.49C505.9 311.85 514.13 320.49 535.91 322.23C537.94 322.33 540.01 322.48 542.03 322.48C546.04 322.48 566.12 322.48 602.25 322.48L602.25 309.76C568.86 309.76 550.3 309.76 546.59 309.76C534.17 309.76 529.98 304.24 529.98 296.39C529.98 290.5 529.98 261.04 529.98 208L505.9 208ZM454.66 220.72C462.85 220.72 468.35 227.68 469.58 233.44C469.58 233.44 469.76 292.67 469.76 297.04C469.76 301.41 467.46 303.4 467.46 303.4C467.02 302.98 464.84 300.86 460.92 297.04L433.63 297.04L447.04 309.76C433.01 309.76 425.22 309.76 423.66 309.76C415.28 309.76 410.58 303.2 409.36 297.04C409.36 290.81 409.36 240.96 409.36 234.73C409.36 227.98 414.25 220.72 423.66 220.72C429.86 220.72 451.56 220.72 454.66 220.72ZM168.66 246.16C169.13 246.66 168.66 300.37 168.66 301.41C168.85 312.54 182.21 322.28 203.15 322.48C205.67 322.48 218.26 322.48 240.93 322.48C240.93 322.99 240.93 323.27 240.93 323.32C240.93 325.71 242.57 333.66 228.88 335.2C228.74 335.2 168.8 335.2 168.66 335.2C168.66 336.05 168.66 340.29 168.66 347.92C206.35 347.92 227.28 347.92 231.47 347.92C242.1 347.57 265.16 345.04 265.01 325.56C265.01 325.21 265.11 246.16 265.01 246.16C263.41 246.16 255.38 246.16 240.93 246.16C240.93 284.32 240.93 305.52 240.93 309.76C240.55 309.76 211.1 309.86 205.17 309.76C193.55 309.56 192.56 302.55 192.75 299.87C192.75 296.29 192.75 278.39 192.75 246.16C179.9 246.16 171.87 246.16 168.66 246.16Z" id="f1jxzYmgVn"></path></defs><g><g><g><use xlink:href="#f1jxzYmgVn" opacity="1" fill="#32a25f" fill-opacity="1"></use><g><use xlink:href="#f1jxzYmgVn" opacity="1" fill-opacity="0" stroke="#000000" stroke-width="1" stroke-opacity="0"></use></g></g></g></g></svg>