<?xml version="1.0" encoding="UTF-8" standalone="no"?>
<!DOCTYPE svg PUBLIC "-//W3C//DTD SVG 1.1//EN" "http://www.w3.org/Graphics/SVG/1.1/DTD/svg11.dtd">
<svg version="1.1" xmlns="http://www.w3.org/2000/svg" xmlns:xlink="http://www.w3.org/1999/xlink" preserveAspectRatio="xMidYMid meet" viewBox="0 0 640 640" width="28" height="28"><defs><path d="M581 -1C581 -1 581 -1 581 -1C581 240.2 581 374.2 581 401C581 401 581 401 581 401C231.8 401 37.8 401 -1 401C-1 401 -1 401 -1 401C-1 159.8 -1 25.8 -1 -1C-1 -1 -1 -1 -1 -1C348.2 -1 542.2 -1 581 -1Z" id="gChMbjCW"></path><path d="M503.16 322.94C489.68 372.83 461.5 416.68 423.54 449.57C378.64 488.47 320.07 512 256 512C114.62 512 0 397.39 0 256C0 114.62 114.62 0 256 0C397.39 0 512 114.62 512 256C512 279.15 508.93 301.6 503.16 322.94Z" id="b2C3FAqo1Q"></path><path d="M423.54 449.57C419.83 449.77 415.95 449.86 411.93 449.86C358.78 449.86 329.24 416.64 314.56 391.72C319.38 388.83 357.93 365.66 362.75 362.77C362.75 362.77 379.14 397.61 409.87 397.61C440.61 397.61 452.91 387.36 452.91 363.79C452.91 335.1 353.52 324.86 338.15 275.68C322.78 226.49 343.27 156.81 415 161.94C459.83 165.14 485.04 187.15 497.65 203.21C492.87 206.67 454.62 234.3 449.84 237.76C439.59 208.05 397.58 208.05 389.38 232.64C381.19 257.23 408.85 271.57 451.89 285.92C474 293.28 491.78 306.88 503.16 322.94C489.68 372.83 461.5 416.68 423.54 449.57Z" id="c57xPu8aWg"></path><path d="M83.11 169.79L83.11 221.2L162.94 221.2L162.94 444.45L221.12 444.45L221.12 221.2L300.94 221.2L300.94 169.79L83.11 169.79Z" id="acwx58Dy"></path></defs><g><g><g><use xlink:href="#gChMbjCW" opacity="1" fill="#000000" fill-opacity="0"></use><g><use xlink:href="#gChMbjCW" opacity="1" fill-opacity="0" stroke="#000000" stroke-width="1" stroke-opacity="0"></use></g></g><g><use xlink:href="#b2C3FAqo1Q" opacity="1" fill="#32a25f" fill-opacity="1"></use><g><use xlink:href="#b2C3FAqo1Q" opacity="1" fill-opacity="0" stroke="#000000" stroke-width="1" stroke-opacity="0"></use></g></g><g><use xlink:href="#c57xPu8aWg" opacity="1" fill="#1d1d1d" fill-opacity="1"></use><g><use xlink:href="#c57xPu8aWg" opacity="1" fill-opacity="0" stroke="#000000" stroke-width="1" stroke-opacity="0"></use></g></g><g><use xlink:href="#acwx58Dy" opacity="1" fill="#1d1d1d" fill-opacity="1"></use><g><use xlink:href="#acwx58Dy" opacity="1" fill-opacity="0" stroke="#000000" stroke-width="1" stroke-opacity="0"></use></g></g></g></g></svg>